<!--?xml version="1.0" encoding="UTF-8"?-->
<svg preserveAspectRatio="xMidYMid meet" data-bbox="0.002 -0.001 664.612 1250.881" viewBox="0.002 -0.001 664.612 1250.881" xmlns="http://www.w3.org/2000/svg" data-type="color" role="img" aria-label="Шеврон АЗОВУ">
    <g>
        <path d="M.002-.001v921.444l332.306 329.437M.002-.001h664.612l-.07 921.444-332.24 329.437" fill="#8a9177" data-color="1"></path>
        <path d="M11.935 11.932V916.47l320.373 317.606L652.611 916.47l.07-904.54H11.935z" fill="#000000" data-color="2"></path>
        <path d="M37.655 37.651v868.101l294.65 292.107 294.587-292.103.066-868.101-589.303-.004z" fill="#8a9177" data-color="1"></path>
        <path d="M43.64 43.636v859.625l288.664 286.173 288.607-286.173.062-859.625H43.639z" fill="#000000" data-color="2"></path>
        <path d="M52.42 52.417V899.6l279.884 277.469 279.825-277.47.063-847.184-559.771.003z" fill="#8a9177" data-color="1"></path>
        <path d="M389.443 209.31 47.901 550.854v176.83l216.54-216.758v34.548L97.969 711.948l-3.64 3.64v176.69L267.89 718.71v211.077l348.863-348.926.015-176.562-223.873 223.873v-34.548L563.011 423.51V246.82L389.447 420.384l-.004-211.073z" fill="#000000" data-color="2"></path>
        <path d="M381.003 229.684 40.907 569.78v152.95L258.47 504.962l14.41-14.406v58.41l-2.473 2.474-166.474 166.474-1.167 1.167v152.82l159.157-159.16 14.407-14.407v211.073l348.492-348.551.008-152.692-225.972 225.972-14.406 14.406v-58.414l2.473-2.474 167.641-167.64v-152.82L395.41 426.353l-14.407 14.407V229.684z" fill="#8a9177" data-color="1"></path>
        <path d="M374.963 244.27 23.77 595.463v135.845L254.2 500.69v-.004l14.41-14.406 10.315-10.319v75.504l-1.768 1.768-2.474 2.474L108.811 721.58v135.731l148.842-148.846 14.407-14.406 10.315-10.315v211.07L638.58 538.549l.011-135.599-235.453 235.454-14.407 14.406-10.315 10.315v-75.504l1.77-1.768 2.472-2.474 165.873-165.872V281.783L399.688 430.625l-14.406 14.407-10.315 10.315v-34.96l-.004-176.117z" fill="#000000" data-color="2"></path>
        <path d="M109.577 80.562 69.249 180.37h41.8l5.507-14.443h36.152l5.504 14.443h40.65l-40.327-99.807h-48.958zm25.033 29.254 10.939 31.723h-21.874l10.935-31.723z" fill="#000000" data-color="2"></path>
        <path d="M231.94 80.805c-12.506 0-31.565.25-31.565 21.91v12.697h38.097v-3.321c0-4.756 3.588-5.897 7.122-5.897h33.536c4.656 0 5.537 3.21 5.537 6.209 0 2.572-.363 6.27-4.495 6.27h-35.037v23.596h35.037c4.132 0 4.495 4.187 4.495 6.759 0 2.998-.885 6.209-5.537 6.209h-33.536c-3.534 0-7.122-1.141-7.122-5.897v-3.805h-38.097v12.696c0 21.658 19.06 21.91 31.565 21.91h58.745c23.984 0 30.996-7.966 30.996-19.554v-18.248c0-5.798-4.763-9.948-10.913-11.794 6.15-1.846 10.344-5.816 10.344-11.614v-18.572c0-11.588-7.016-19.554-30.996-19.554H231.94z" fill="#000000" data-color="2"></path>
        <path d="M361.88 80.588c-18.776 0-26.776 8.976-26.776 20.124V160.3c0 11.148 6.679 20.123 29.763 20.123h67.41c23.08 0 29.762-8.975 29.762-20.123v-59.59c0-11.147-7.999-20.123-26.776-20.123H361.88zm20.087 25.323h33.36c8.146 0 9.001 2.72 9.001 8.455v32.314c0 5.735-.855 8.454-9.001 8.454h-33.36c-8.146 0-9.001-2.719-9.001-8.454v-32.314c0-5.736.855-8.455 9.001-8.455z" fill="#000000" data-color="2"></path>
        <path d="M475.76 80.518v99.925h81.617c33.18 0 37.983-7.585 37.983-22.406v-15.592c0-5.79-4.628-9.75-11.42-11.809 6.792-2.054 10.73-6.04 10.73-11.83v-15.882c0-14.82-4.114-22.406-37.293-22.406H475.76zm38.067 25.423h38.42c1.016 0 5.882-.074 5.882 6.187s-3.244 6.939-4.381 6.939h-39.92V105.94zm0 36.14h38.651c1.016 0 5.882-.07 5.882 6.187s-3.244 6.936-4.381 6.936h-40.152v-13.122z" fill="#000000" data-color="2"></path>
    </g>
</svg>